<?xml version="1.0" encoding="iso-8859-1"?>
<!-- Uploaded to: SVG Repo, www.svgrepo.com, Generator: SVG Repo Mixer Tools -->
<svg fill="#000000" height="800px" width="800px" version="1.1" id="Layer_1" xmlns="http://www.w3.org/2000/svg" xmlns:xlink="http://www.w3.org/1999/xlink" 
	 viewBox="0 0 499.996 499.996" xml:space="preserve">
<g>
	<g>
		<path d="M488.244,465.498H11.752C5.264,465.498,0,470.758,0,477.25s5.264,11.756,11.752,11.756h476.496
			c6.492,0,11.752-5.264,11.748-11.756C499.996,470.762,494.736,465.498,488.244,465.498z"/>
	</g>
</g>
<g>
	<g>
		<path d="M311.548,18.93c0-4.308-3.524-7.94-7.836-7.94H280.14c-4.312,0-7.248,3.732-7.248,8.04v35.14l-47.156,0.108L225.5,18.93
			c0-4.308-3.672-7.94-7.984-7.94h-23.568c-4.308,0-7.256,3.732-7.256,8.04v43.164v23.572v42.896c0,4.312,2.948,7.712,7.256,7.712
			h23.832c4.312,0,7.836-3.628,7.836-7.936l-0.084-35.164h47.356v35.388c0,4.312,2.936,7.712,7.248,7.712h23.832
			c4.308,0,7.836-3.516,7.836-7.824L311.548,18.93z"/>
	</g>
</g>
<g>
	<g>
		<path d="M472.228,108.946H335.272l0.048,19.488c0,17.284-14.06,31.448-31.348,31.448H280.14c-16.192,0-29.548-12.332-31.18-28.096
			c-1.632,15.764-14.992,28.096-31.18,28.096h-23.832c-17.284,0-30.764-13.94-30.764-31.224v-19.712H25.7
			c-2.164,0-3.572,2.08-3.572,4.244v363.912c0,2.164,1.408,4.072,3.572,4.072h446.528c2.16,0,4.408-1.908,4.408-4.072V113.186
			C476.632,111.026,474.388,108.946,472.228,108.946z M143.592,414.562H84.82v-58.776h58.772V414.562z M143.592,324.442H84.82
			V265.67h58.772V324.442z M143.592,234.326H84.82v-58.772h58.772V234.326z M174.936,175.554h58.772v58.772h-58.772V175.554z
			 M174.936,265.67h58.772v58.772h-58.772V265.67z M174.936,477.25V355.786h66.608V477.25H174.936z M323.824,477.25h-66.608V355.786
			h66.608V477.25z M323.824,324.442h-58.768V265.67h58.768V324.442z M323.824,234.326h-58.768v-58.772h58.768V234.326z
			 M413.94,414.562h-58.768v-58.776h58.768V414.562z M413.94,324.442h-58.768V265.67h58.768V324.442z M413.94,234.326h-58.768
			v-58.772h58.768V234.326z"/>
	</g>
</g>
</svg>